<svg width="300" height="300" viewBox="0 0 300 300" fill="none" xmlns="http://www.w3.org/2000/svg">
<g clip-path="url(#clip0_6013_1888)">
<path d="M299.941 145.887C297.791 65.9274 232.488 1.33625 152.52 0.0153001C67.9534 -1.37339 -1.151 67.5955 0.0175346 152.111C0.601802 194.254 19.7725 232.96 49.5109 260.2V260.59H49.9343C76.2432 284.52 110.74 299.49 147.913 299.998C187.72 300.54 224.063 285.493 251.244 260.59H254.69V257.321C283.531 229.167 301.118 189.538 299.941 145.887ZM16.9443 148.343C17.825 76.4103 76.4973 17.7804 148.421 16.9421C222.522 16.0869 283.065 76.1055 283.065 150.003C283.065 166.066 280.203 181.468 274.97 195.736L163.333 118.266C156.398 113.448 147.033 113.389 140.038 118.122L25.0733 195.846C19.6286 181.053 16.7411 165.05 16.9443 148.343ZM251.032 207.828H213.029C199.634 207.828 186.407 204.627 174.629 198.251C170.801 196.177 166.813 194.212 162.876 192.282C148.735 185.313 134.12 178.107 134.077 169.436C134.018 157.505 143.468 146.734 154.239 138.326C156.567 136.514 159.81 136.429 162.232 138.114L253.115 201.181C256.054 203.222 254.606 207.828 251.032 207.828ZM39.9763 224.763H260.025C255.41 231.529 250.186 237.854 244.436 243.646H55.5653C49.8157 237.854 44.5912 231.529 39.9763 224.763ZM149.996 283.072C122.663 283.072 97.226 274.782 76.0654 260.581H223.927C202.775 274.782 177.338 283.072 149.996 283.072Z" fill="url(#paint0_linear_6013_1888)"/>
</g>
<defs>
<linearGradient id="paint0_linear_6013_1888" x1="150" y1="-10.9922" x2="150" y2="300.013" gradientUnits="userSpaceOnUse">
<stop stop-color="#FFB404"/>
<stop offset="1" stop-color="#FF7004"/>
</linearGradient>
<clipPath id="clip0_6013_1888">
<rect width="300" height="300.008" fill="white"/>
</clipPath>
</defs>
</svg>
